<svg xmlns="http://www.w3.org/2000/svg" viewBox="0 0 512 512">
  <defs>
    <linearGradient id="cir" x1="0" y1="0" x2="0" y2="1">
      <stop offset="0" stop-color="#5aa9e6"/><stop offset=".55" stop-color="#2b7bd4"/><stop offset="1" stop-color="#1150a8"/>
    </linearGradient>
    <linearGradient id="ouro" x1="0" y1="0" x2="1" y2="1">
      <stop offset="0" stop-color="#ffd062"/><stop offset=".55" stop-color="#f8b13c"/><stop offset="1" stop-color="#e79a25"/>
    </linearGradient>
  </defs>
  <circle cx="256" cy="256" r="238" fill="url(#cir)"/>
  <!-- estrela -->
  <path d="M226.0,142.0L262.4,241.8L368.7,245.6L285.0,311.2L314.2,413.4L226.0,354.0L137.8,413.4L167.0,311.2L83.3,245.6L189.6,241.8Z" fill="url(#ouro)"/>
  <!-- rastro do foguete -->
  <path d="M336 176 C392 232 404 300 330 336 C388 322 412 258 372 200 Z" fill="url(#ouro)"/>
  <!-- foguete -->
  <g transform="rotate(45 330 160)">
    <path d="M330 92 C352 118 358 146 352 176 L308 176 C302 146 308 118 330 92 Z" fill="url(#ouro)"/>
    <path d="M308 154 L286 196 L310 186 Z" fill="url(#ouro)"/>
    <path d="M352 154 L374 196 L350 186 Z" fill="url(#ouro)"/>
    <path d="M318 178 L342 178 L336 200 L324 200 Z" fill="url(#ouro)"/>
    <circle cx="330" cy="136" r="13" fill="#1560bd"/>
  </g>
</svg>